<svg width="146" height="40" viewBox="0 0 146 40" fill="none" xmlns="http://www.w3.org/2000/svg">
<path d="M138.888 18.789H130.381L128.304 22.8148H122.492L134.764 0.0235596H141.193L145.413 22.8148H139.537L138.888 18.789ZM138.238 14.5684L136.907 6.12721L132.557 14.5684H138.238Z" fill="#4807FF"/>
<path d="M138.888 18.789H130.381L128.304 22.8148H122.492L134.764 0.0235596H141.193L145.413 22.8148H139.537L138.888 18.789ZM138.238 14.5684L136.907 6.12721L132.557 14.5684H138.238Z" fill="url(#paint0_linear_10903_4418)"/>
<path d="M115.862 11.1919L122.972 22.8148H116.186L110.31 12.7503L108.524 22.8148H102.973L106.998 0.0235596H112.55L110.797 10.0232L120.18 0.0235596H126.673L115.862 11.1919Z" fill="#4807FF"/>
<path d="M115.862 11.1919L122.972 22.8148H116.186L110.31 12.7503L108.524 22.8148H102.973L106.998 0.0235596H112.55L110.797 10.0232L120.18 0.0235596H126.673L115.862 11.1919Z" fill="url(#paint1_linear_10903_4418)"/>
<path d="M100.631 22.8148H95.0792L88.2059 8.78621L85.7939 22.8148H80.2422L84.268 0.0235596H89.8197L96.6608 14.257L99.1051 0.0235596H104.657L100.631 22.8148Z" fill="#4807FF"/>
<path d="M100.631 22.8148H95.0792L88.2059 8.78621L85.7939 22.8148H80.2422L84.268 0.0235596H89.8197L96.6608 14.257L99.1051 0.0235596H104.657L100.631 22.8148Z" fill="url(#paint2_linear_10903_4418)"/>
<path d="M61.838 22.8148H56.2863L49.413 8.78621L47.0009 22.8148H41.4492L45.475 0.0235596H51.0267L57.8678 14.257L60.3121 0.0235596H65.8638L61.838 22.8148Z" fill="#4807FF"/>
<path d="M61.838 22.8148H56.2863L49.413 8.78621L47.0009 22.8148H41.4492L45.475 0.0235596H51.0267L57.8678 14.257L60.3121 0.0235596H65.8638L61.838 22.8148Z" fill="url(#paint3_linear_10903_4418)"/>
<path d="M34.3095 18.7655H25.8034L23.7255 22.7913H17.9141L30.1863 0H36.6146L40.8352 22.7913H34.9588L34.3095 18.7655ZM33.6602 14.5449L32.3291 6.10365L27.9786 14.5449H33.6602Z" fill="#4807FF"/>
<path d="M34.3095 18.7655H25.8034L23.7255 22.7913H17.9141L30.1863 0H36.6146L40.8352 22.7913H34.9588L34.3095 18.7655ZM33.6602 14.5449L32.3291 6.10365L27.9786 14.5449H33.6602Z" fill="url(#paint4_linear_10903_4418)"/>
<path fill-rule="evenodd" clip-rule="evenodd" d="M73.1228 4.47592V4.47588H68.9783L72.4391 7.93674L72.2289 9.14657H79.6636L78.9169 13.3347H71.4822L70.5731 18.4319H78.9819L78.2027 22.8148H64.2422L68.268 0.0235596H82.2285L81.4493 4.47592H73.1228Z" fill="#4807FF"/>
<path fill-rule="evenodd" clip-rule="evenodd" d="M73.1228 4.47592V4.47588H68.9783L72.4391 7.93674L72.2289 9.14657H79.6636L78.9169 13.3347H71.4822L70.5731 18.4319H78.9819L78.2027 22.8148H64.2422L68.268 0.0235596H82.2285L81.4493 4.47592H73.1228Z" fill="url(#paint5_linear_10903_4418)"/>
<path fill-rule="evenodd" clip-rule="evenodd" d="M19.0707 10.9974C19.8715 9.89353 20.3801 8.68146 20.5966 7.36117C20.6832 6.90664 20.7265 6.40883 20.7265 5.86772C20.7265 4.07126 20.1204 2.65357 18.9083 1.61465C17.6963 0.554085 15.8998 0.0238037 13.519 0.0238037H4.52581L0.5 22.8151H6.05172L7.5127 14.6336H10.9541C12.8155 14.6336 14.428 14.2981 15.7916 13.6271C17.1768 12.9562 18.2698 12.0796 19.0707 10.9974ZM14.9475 7.36117C14.5795 9.30914 13.3566 10.2831 11.2788 10.2831H8.29189L8.68475 8.00981L5.15091 4.47597H9.29542V4.47616L12.3177 4.43921C13.2268 4.43921 13.8977 4.63401 14.3306 5.0236C14.7851 5.39155 15.0124 5.92183 15.0124 6.61445C15.0124 6.76596 14.9908 7.01486 14.9475 7.36117Z" fill="#4807FF"/>
<path fill-rule="evenodd" clip-rule="evenodd" d="M19.0707 10.9974C19.8715 9.89353 20.3801 8.68146 20.5966 7.36117C20.6832 6.90664 20.7265 6.40883 20.7265 5.86772C20.7265 4.07126 20.1204 2.65357 18.9083 1.61465C17.6963 0.554085 15.8998 0.0238037 13.519 0.0238037H4.52581L0.5 22.8151H6.05172L7.5127 14.6336H10.9541C12.8155 14.6336 14.428 14.2981 15.7916 13.6271C17.1768 12.9562 18.2698 12.0796 19.0707 10.9974ZM14.9475 7.36117C14.5795 9.30914 13.3566 10.2831 11.2788 10.2831H8.29189L8.68475 8.00981L5.15091 4.47597H9.29542V4.47616L12.3177 4.43921C13.2268 4.43921 13.8977 4.63401 14.3306 5.0236C14.7851 5.39155 15.0124 5.92183 15.0124 6.61445C15.0124 6.76596 14.9908 7.01486 14.9475 7.36117Z" fill="url(#paint6_linear_10903_4418)"/>
<path d="M140.062 33.0835H143.478C144.02 33.0835 144.458 33.2311 144.792 33.5263C145.127 33.8215 145.294 34.2109 145.294 34.6945V35.3634C145.294 35.69 145.193 35.9789 144.991 36.2301C144.796 36.4751 144.521 36.6572 144.168 36.7765V36.7954C144.37 36.9147 144.531 37.0686 144.651 37.257C144.777 37.4391 144.884 37.6778 144.972 37.973L145.502 39.6782H144.357L143.846 38.0484C143.764 37.7657 143.638 37.5491 143.468 37.3983C143.298 37.2476 143.099 37.1722 142.872 37.1722H141.169V39.6782H140.062V33.0835ZM143.232 36.2207C143.522 36.2207 143.752 36.1422 143.922 35.9852C144.099 35.8282 144.187 35.624 144.187 35.3728V34.7228C144.187 34.5218 144.121 34.3585 143.988 34.2329C143.856 34.1072 143.679 34.0444 143.459 34.0444H141.169V36.2207H143.232Z" fill="#4807FF"/>
<path d="M140.062 33.0835H143.478C144.02 33.0835 144.458 33.2311 144.792 33.5263C145.127 33.8215 145.294 34.2109 145.294 34.6945V35.3634C145.294 35.69 145.193 35.9789 144.991 36.2301C144.796 36.4751 144.521 36.6572 144.168 36.7765V36.7954C144.37 36.9147 144.531 37.0686 144.651 37.257C144.777 37.4391 144.884 37.6778 144.972 37.973L145.502 39.6782H144.357L143.846 38.0484C143.764 37.7657 143.638 37.5491 143.468 37.3983C143.298 37.2476 143.099 37.1722 142.872 37.1722H141.169V39.6782H140.062V33.0835ZM143.232 36.2207C143.522 36.2207 143.752 36.1422 143.922 35.9852C144.099 35.8282 144.187 35.624 144.187 35.3728V34.7228C144.187 34.5218 144.121 34.3585 143.988 34.2329C143.856 34.1072 143.679 34.0444 143.459 34.0444H141.169V36.2207H143.232Z" fill="url(#paint7_radial_10903_4418)"/>
<path d="M131.708 39.6782C131.462 39.6782 131.263 39.606 131.112 39.4615C130.967 39.3108 130.895 39.1161 130.895 38.8774V33.0835H135.747V34.035H132.001V35.825H135.464V36.786H132.001V38.7267H135.747V39.6782H131.708Z" fill="#4807FF"/>
<path d="M131.708 39.6782C131.462 39.6782 131.263 39.606 131.112 39.4615C130.967 39.3108 130.895 39.1161 130.895 38.8774V33.0835H135.747V34.035H132.001V35.825H135.464V36.786H132.001V38.7267H135.747V39.6782H131.708Z" fill="url(#paint8_radial_10903_4418)"/>
<path d="M123.107 39.7535C122.634 39.7535 122.218 39.653 121.858 39.452C121.505 39.2448 121.231 38.9559 121.035 38.5853C120.84 38.2085 120.742 37.7751 120.742 37.2852V35.4764C120.742 34.9865 120.84 34.5562 121.035 34.1857C121.237 33.8088 121.518 33.5199 121.877 33.319C122.243 33.1117 122.663 33.0081 123.136 33.0081H124.176C124.63 33.0081 125.031 33.1023 125.378 33.2907C125.724 33.4728 125.992 33.7335 126.182 34.0726C126.371 34.4055 126.465 34.7918 126.465 35.2314H125.378C125.378 34.8546 125.267 34.5531 125.046 34.327C124.826 34.0946 124.536 33.9784 124.176 33.9784H123.136C122.751 33.9784 122.439 34.1197 122.199 34.4024C121.966 34.6787 121.849 35.0493 121.849 35.514V37.2475C121.849 37.7123 121.963 38.086 122.19 38.3686C122.423 38.645 122.729 38.7831 123.107 38.7831H124.186C124.551 38.7831 124.851 38.6544 125.084 38.3969C125.318 38.1394 125.434 37.8096 125.434 37.4077V37.0874H123.599V36.1264H126.522V37.4077C126.522 37.8662 126.424 38.2744 126.229 38.6324C126.033 38.9841 125.759 39.2605 125.406 39.4615C125.053 39.6562 124.646 39.7535 124.186 39.7535H123.107Z" fill="#4807FF"/>
<path d="M123.107 39.7535C122.634 39.7535 122.218 39.653 121.858 39.452C121.505 39.2448 121.231 38.9559 121.035 38.5853C120.84 38.2085 120.742 37.7751 120.742 37.2852V35.4764C120.742 34.9865 120.84 34.5562 121.035 34.1857C121.237 33.8088 121.518 33.5199 121.877 33.319C122.243 33.1117 122.663 33.0081 123.136 33.0081H124.176C124.63 33.0081 125.031 33.1023 125.378 33.2907C125.724 33.4728 125.992 33.7335 126.182 34.0726C126.371 34.4055 126.465 34.7918 126.465 35.2314H125.378C125.378 34.8546 125.267 34.5531 125.046 34.327C124.826 34.0946 124.536 33.9784 124.176 33.9784H123.136C122.751 33.9784 122.439 34.1197 122.199 34.4024C121.966 34.6787 121.849 35.0493 121.849 35.514V37.2475C121.849 37.7123 121.963 38.086 122.19 38.3686C122.423 38.645 122.729 38.7831 123.107 38.7831H124.186C124.551 38.7831 124.851 38.6544 125.084 38.3969C125.318 38.1394 125.434 37.8096 125.434 37.4077V37.0874H123.599V36.1264H126.522V37.4077C126.522 37.8662 126.424 38.2744 126.229 38.6324C126.033 38.9841 125.759 39.2605 125.406 39.4615C125.053 39.6562 124.646 39.7535 124.186 39.7535H123.107Z" fill="url(#paint9_radial_10903_4418)"/>
<path d="M115.335 38.0484H112.705L112.09 39.6782H110.945L113.518 33.0835H114.02C114.36 33.0835 114.597 33.2499 114.729 33.5828L117.094 39.6782H115.94L115.335 38.0484ZM113.017 37.1251H115.023L114.029 34.4495H114.02L113.017 37.1251Z" fill="#4807FF"/>
<path d="M115.335 38.0484H112.705L112.09 39.6782H110.945L113.518 33.0835H114.02C114.36 33.0835 114.597 33.2499 114.729 33.5828L117.094 39.6782H115.94L115.335 38.0484ZM113.017 37.1251H115.023L114.029 34.4495H114.02L113.017 37.1251Z" fill="url(#paint10_radial_10903_4418)"/>
<path d="M101.477 33.0835H102.47L105.819 37.9071V33.0835H106.897V39.6782H105.894L102.555 34.8735V39.6782H101.477V33.0835Z" fill="#4807FF"/>
<path d="M101.477 33.0835H102.47L105.819 37.9071V33.0835H106.897V39.6782H105.894L102.555 34.8735V39.6782H101.477V33.0835Z" fill="url(#paint11_radial_10903_4418)"/>
<path d="M95.6706 38.0484H93.0408L92.4259 39.6782H91.2812L93.8543 33.0835H94.3557C94.6963 33.0835 94.9328 33.2499 95.0652 33.5828L97.4302 39.6782H96.2761L95.6706 38.0484ZM93.353 37.1251H95.3585L94.3652 34.4495H94.3557L93.353 37.1251Z" fill="#4807FF"/>
<path d="M95.6706 38.0484H93.0408L92.4259 39.6782H91.2812L93.8543 33.0835H94.3557C94.6963 33.0835 94.9328 33.2499 95.0652 33.5828L97.4302 39.6782H96.2761L95.6706 38.0484ZM93.353 37.1251H95.3585L94.3652 34.4495H94.3557L93.353 37.1251Z" fill="url(#paint12_radial_10903_4418)"/>
<path d="M80.8125 33.0835H81.8152L84.0478 37.1534L86.2235 33.0835H87.2263V39.6782H86.1384V35.1279L84.5775 38.0107C84.4892 38.1614 84.4041 38.2713 84.3221 38.3404C84.2401 38.4032 84.1487 38.4346 84.0478 38.4346H83.7356L81.8909 35.1279V39.6782H80.8125V33.0835Z" fill="#4807FF"/>
<path d="M80.8125 33.0835H81.8152L84.0478 37.1534L86.2235 33.0835H87.2263V39.6782H86.1384V35.1279L84.5775 38.0107C84.4892 38.1614 84.4041 38.2713 84.3221 38.3404C84.2401 38.4032 84.1487 38.4346 84.0478 38.4346H83.7356L81.8909 35.1279V39.6782H80.8125V33.0835Z" fill="url(#paint13_radial_10903_4418)"/>
<path d="M66.8839 39.6782C66.6316 39.6782 66.4329 39.606 66.2879 39.4615C66.1428 39.3171 66.0703 39.1255 66.0703 38.8868V33.0835H67.1771V38.7173H70.7719V39.6782H66.8839Z" fill="#4807FF"/>
<path d="M66.8839 39.6782C66.6316 39.6782 66.4329 39.606 66.2879 39.4615C66.1428 39.3171 66.0703 39.1255 66.0703 38.8868V33.0835H67.1771V38.7173H70.7719V39.6782H66.8839Z" fill="url(#paint14_radial_10903_4418)"/>
<path d="M58.0948 39.6782C57.8425 39.6782 57.6439 39.606 57.4988 39.4615C57.3538 39.3171 57.2812 39.1255 57.2812 38.8868V33.0835H58.3881V38.7173H61.9828V39.6782H58.0948Z" fill="#4807FF"/>
<path d="M58.0948 39.6782C57.8425 39.6782 57.6439 39.606 57.4988 39.4615C57.3538 39.3171 57.2812 39.1255 57.2812 38.8868V33.0835H58.3881V38.7173H61.9828V39.6782H58.0948Z" fill="url(#paint15_radial_10903_4418)"/>
<path d="M51.53 38.0484H48.9002L48.2853 39.6782H47.1406L49.7137 33.0835H50.2151C50.5556 33.0835 50.7921 33.2499 50.9246 33.5828L53.2895 39.6782H52.1354L51.53 38.0484ZM49.2123 37.1251H51.2178L50.2245 34.4495H50.2151L49.2123 37.1251Z" fill="#4807FF"/>
<path d="M51.53 38.0484H48.9002L48.2853 39.6782H47.1406L49.7137 33.0835H50.2151C50.5556 33.0835 50.7921 33.2499 50.9246 33.5828L53.2895 39.6782H52.1354L51.53 38.0484ZM49.2123 37.1251H51.2178L50.2245 34.4495H50.2151L49.2123 37.1251Z" fill="url(#paint16_radial_10903_4418)"/>
<path d="M38.8643 39.6782C38.6247 39.6782 38.4292 39.606 38.2778 39.4615C38.1265 39.3108 38.0508 39.1192 38.0508 38.8868V33.0835H41.182C41.7685 33.0835 42.2383 33.2248 42.5915 33.5074C42.951 33.7838 43.1307 34.1512 43.1307 34.6097V35.0902C43.1307 35.31 43.0771 35.5173 42.9699 35.712C42.8627 35.9067 42.7145 36.0637 42.5253 36.183V36.1924C42.8343 36.2929 43.0803 36.4625 43.2632 36.7012C43.4524 36.9398 43.547 37.2099 43.547 37.5114V37.9824C43.547 38.5037 43.3672 38.9182 43.0077 39.226C42.6483 39.5275 42.1627 39.6782 41.5509 39.6782H38.8643ZM41.2388 35.9004C41.4721 35.9004 41.6613 35.825 41.8063 35.6743C41.9514 35.5235 42.0239 35.3288 42.0239 35.0902V34.7039C42.0239 34.5029 41.9419 34.3428 41.778 34.2234C41.6203 34.1041 41.409 34.0444 41.1442 34.0444H39.1576V35.9004H41.2388ZM41.4563 38.7173C41.7654 38.7173 42.005 38.6482 42.1753 38.51C42.3519 38.3718 42.4402 38.1803 42.4402 37.9353V37.5114C42.4402 37.2978 42.3645 37.1283 42.2131 37.0026C42.0618 36.8707 41.86 36.8048 41.6077 36.8048H39.1576V38.7173H41.4563Z" fill="#4807FF"/>
<path d="M38.8643 39.6782C38.6247 39.6782 38.4292 39.606 38.2778 39.4615C38.1265 39.3108 38.0508 39.1192 38.0508 38.8868V33.0835H41.182C41.7685 33.0835 42.2383 33.2248 42.5915 33.5074C42.951 33.7838 43.1307 34.1512 43.1307 34.6097V35.0902C43.1307 35.31 43.0771 35.5173 42.9699 35.712C42.8627 35.9067 42.7145 36.0637 42.5253 36.183V36.1924C42.8343 36.2929 43.0803 36.4625 43.2632 36.7012C43.4524 36.9398 43.547 37.2099 43.547 37.5114V37.9824C43.547 38.5037 43.3672 38.9182 43.0077 39.226C42.6483 39.5275 42.1627 39.6782 41.5509 39.6782H38.8643ZM41.2388 35.9004C41.4721 35.9004 41.6613 35.825 41.8063 35.6743C41.9514 35.5235 42.0239 35.3288 42.0239 35.0902V34.7039C42.0239 34.5029 41.9419 34.3428 41.778 34.2234C41.6203 34.1041 41.409 34.0444 41.1442 34.0444H39.1576V35.9004H41.2388ZM41.4563 38.7173C41.7654 38.7173 42.005 38.6482 42.1753 38.51C42.3519 38.3718 42.4402 38.1803 42.4402 37.9353V37.5114C42.4402 37.2978 42.3645 37.1283 42.2131 37.0026C42.0618 36.8707 41.86 36.8048 41.6077 36.8048H39.1576V38.7173H41.4563Z" fill="url(#paint17_radial_10903_4418)"/>
<path d="M30.7212 34.035H28.6211V33.0835H33.9281V34.035H31.828V39.6782H30.7212V34.035Z" fill="#4807FF"/>
<path d="M30.7212 34.035H28.6211V33.0835H33.9281V34.035H31.828V39.6782H30.7212V34.035Z" fill="url(#paint18_radial_10903_4418)"/>
<path d="M21.5584 39.7535C21.0791 39.7535 20.6566 39.653 20.2908 39.452C19.925 39.2448 19.6412 38.9559 19.4394 38.5853C19.2376 38.2085 19.1367 37.7751 19.1367 37.2852V35.4764C19.1367 34.9865 19.2376 34.5562 19.4394 34.1857C19.6412 33.8088 19.925 33.5199 20.2908 33.319C20.6566 33.1117 21.0791 33.0081 21.5584 33.0081H22.5612C23.0405 33.0081 23.463 33.1117 23.8288 33.319C24.2009 33.5199 24.4878 33.8088 24.6897 34.1857C24.8915 34.5562 24.9924 34.9865 24.9924 35.4764V37.2852C24.9924 37.7751 24.8915 38.2085 24.6897 38.5853C24.4878 38.9559 24.2009 39.2448 23.8288 39.452C23.463 39.653 23.0405 39.7535 22.5612 39.7535H21.5584ZM22.5612 38.7831C22.9522 38.7831 23.2707 38.6418 23.5166 38.3592C23.7626 38.0766 23.8856 37.706 23.8856 37.2475V35.514C23.8856 35.0556 23.7626 34.685 23.5166 34.4024C23.277 34.1197 22.9585 33.9784 22.5612 33.9784H21.5679C21.1706 33.9784 20.849 34.1197 20.603 34.4024C20.3633 34.685 20.2435 35.0556 20.2435 35.514V37.2475C20.2435 37.706 20.3633 38.0766 20.603 38.3592C20.849 38.6418 21.1706 38.7831 21.5679 38.7831H22.5612Z" fill="#4807FF"/>
<path d="M21.5584 39.7535C21.0791 39.7535 20.6566 39.653 20.2908 39.452C19.925 39.2448 19.6412 38.9559 19.4394 38.5853C19.2376 38.2085 19.1367 37.7751 19.1367 37.2852V35.4764C19.1367 34.9865 19.2376 34.5562 19.4394 34.1857C19.6412 33.8088 19.925 33.5199 20.2908 33.319C20.6566 33.1117 21.0791 33.0081 21.5584 33.0081H22.5612C23.0405 33.0081 23.463 33.1117 23.8288 33.319C24.2009 33.5199 24.4878 33.8088 24.6897 34.1857C24.8915 34.5562 24.9924 34.9865 24.9924 35.4764V37.2852C24.9924 37.7751 24.8915 38.2085 24.6897 38.5853C24.4878 38.9559 24.2009 39.2448 23.8288 39.452C23.463 39.653 23.0405 39.7535 22.5612 39.7535H21.5584ZM22.5612 38.7831C22.9522 38.7831 23.2707 38.6418 23.5166 38.3592C23.7626 38.0766 23.8856 37.706 23.8856 37.2475V35.514C23.8856 35.0556 23.7626 34.685 23.5166 34.4024C23.277 34.1197 22.9585 33.9784 22.5612 33.9784H21.5679C21.1706 33.9784 20.849 34.1197 20.603 34.4024C20.3633 34.685 20.2435 35.0556 20.2435 35.514V37.2475C20.2435 37.706 20.3633 38.0766 20.603 38.3592C20.849 38.6418 21.1706 38.7831 21.5679 38.7831H22.5612Z" fill="url(#paint19_radial_10903_4418)"/>
<path d="M11.4842 39.7535C11.0049 39.7535 10.5824 39.653 10.2166 39.452C9.85082 39.2448 9.56703 38.9559 9.36522 38.5853C9.16341 38.2085 9.0625 37.7751 9.0625 37.2852V35.4764C9.0625 34.9865 9.16341 34.5562 9.36522 34.1857C9.56703 33.8088 9.85082 33.5199 10.2166 33.319C10.5824 33.1117 11.0049 33.0081 11.4842 33.0081H12.487C12.9663 33.0081 13.3888 33.1117 13.7546 33.319C14.1267 33.5199 14.4136 33.8088 14.6154 34.1857C14.8172 34.5562 14.9181 34.9865 14.9181 35.4764V37.2852C14.9181 37.7751 14.8172 38.2085 14.6154 38.5853C14.4136 38.9559 14.1267 39.2448 13.7546 39.452C13.3888 39.653 12.9663 39.7535 12.487 39.7535H11.4842ZM12.487 38.7831C12.878 38.7831 13.1965 38.6418 13.4424 38.3592C13.6884 38.0766 13.8113 37.706 13.8113 37.2475V35.514C13.8113 35.0556 13.6884 34.685 13.4424 34.4024C13.2028 34.1197 12.8843 33.9784 12.487 33.9784H11.4937C11.0964 33.9784 10.7747 34.1197 10.5288 34.4024C10.2891 34.685 10.1693 35.0556 10.1693 35.514V37.2475C10.1693 37.706 10.2891 38.0766 10.5288 38.3592C10.7747 38.6418 11.0964 38.7831 11.4937 38.7831H12.487Z" fill="#4807FF"/>
<path d="M11.4842 39.7535C11.0049 39.7535 10.5824 39.653 10.2166 39.452C9.85082 39.2448 9.56703 38.9559 9.36522 38.5853C9.16341 38.2085 9.0625 37.7751 9.0625 37.2852V35.4764C9.0625 34.9865 9.16341 34.5562 9.36522 34.1857C9.56703 33.8088 9.85082 33.5199 10.2166 33.319C10.5824 33.1117 11.0049 33.0081 11.4842 33.0081H12.487C12.9663 33.0081 13.3888 33.1117 13.7546 33.319C14.1267 33.5199 14.4136 33.8088 14.6154 34.1857C14.8172 34.5562 14.9181 34.9865 14.9181 35.4764V37.2852C14.9181 37.7751 14.8172 38.2085 14.6154 38.5853C14.4136 38.9559 14.1267 39.2448 13.7546 39.452C13.3888 39.653 12.9663 39.7535 12.487 39.7535H11.4842ZM12.487 38.7831C12.878 38.7831 13.1965 38.6418 13.4424 38.3592C13.6884 38.0766 13.8113 37.706 13.8113 37.2475V35.514C13.8113 35.0556 13.6884 34.685 13.4424 34.4024C13.2028 34.1197 12.8843 33.9784 12.487 33.9784H11.4937C11.0964 33.9784 10.7747 34.1197 10.5288 34.4024C10.2891 34.685 10.1693 35.0556 10.1693 35.514V37.2475C10.1693 37.706 10.2891 38.0766 10.5288 38.3592C10.7747 38.6418 11.0964 38.7831 11.4937 38.7831H12.487Z" fill="url(#paint20_radial_10903_4418)"/>
<path d="M0.5 33.0835H5.25831V34.0444H1.6068V36.0323H4.90829V36.9932H1.6068V39.6782H0.5V33.0835Z" fill="#4807FF"/>
<path d="M0.5 33.0835H5.25831V34.0444H1.6068V36.0323H4.90829V36.9932H1.6068V39.6782H0.5V33.0835Z" fill="url(#paint21_radial_10903_4418)"/>
<defs>
<linearGradient id="paint0_linear_10903_4418" x1="133.953" y1="1.14076" x2="133.953" y2="22.8148" gradientUnits="userSpaceOnUse">
<stop offset="0.455" stop-color="white"/>
<stop offset="1" stop-color="#B2B2B2"/>
</linearGradient>
<linearGradient id="paint1_linear_10903_4418" x1="114.823" y1="1.14076" x2="114.823" y2="22.8148" gradientUnits="userSpaceOnUse">
<stop offset="0.455" stop-color="white"/>
<stop offset="1" stop-color="#B2B2B2"/>
</linearGradient>
<linearGradient id="paint2_linear_10903_4418" x1="92.4495" y1="1.14076" x2="92.4495" y2="22.8148" gradientUnits="userSpaceOnUse">
<stop offset="0.455" stop-color="white"/>
<stop offset="1" stop-color="#B2B2B2"/>
</linearGradient>
<linearGradient id="paint3_linear_10903_4418" x1="53.6565" y1="1.14076" x2="53.6565" y2="22.8148" gradientUnits="userSpaceOnUse">
<stop offset="0.455" stop-color="white"/>
<stop offset="1" stop-color="#B2B2B2"/>
</linearGradient>
<linearGradient id="paint4_linear_10903_4418" x1="29.3746" y1="1.1172" x2="29.3746" y2="22.7913" gradientUnits="userSpaceOnUse">
<stop offset="0.455" stop-color="white"/>
<stop offset="1" stop-color="#B2B2B2"/>
</linearGradient>
<linearGradient id="paint5_linear_10903_4418" x1="73.2353" y1="1.14076" x2="73.2353" y2="22.8148" gradientUnits="userSpaceOnUse">
<stop offset="0.455" stop-color="white"/>
<stop offset="1" stop-color="#B2B2B2"/>
</linearGradient>
<linearGradient id="paint6_linear_10903_4418" x1="10.6132" y1="1.14101" x2="10.6132" y2="22.8151" gradientUnits="userSpaceOnUse">
<stop offset="0.455" stop-color="white"/>
<stop offset="1" stop-color="#B2B2B2"/>
</linearGradient>
<radialGradient id="paint7_radial_10903_4418" cx="0" cy="0" r="1" gradientUnits="userSpaceOnUse" gradientTransform="translate(-14.1481 24.8399) rotate(6.59722) scale(166.821 58.2153)">
<stop stop-color="#CFCFCF"/>
<stop offset="0.48" stop-color="white"/>
<stop offset="1" stop-color="#CFCFCF"/>
</radialGradient>
<radialGradient id="paint8_radial_10903_4418" cx="0" cy="0" r="1" gradientUnits="userSpaceOnUse" gradientTransform="translate(-14.1482 24.8399) rotate(6.59722) scale(166.821 58.2153)">
<stop stop-color="#CFCFCF"/>
<stop offset="0.48" stop-color="white"/>
<stop offset="1" stop-color="#CFCFCF"/>
</radialGradient>
<radialGradient id="paint9_radial_10903_4418" cx="0" cy="0" r="1" gradientUnits="userSpaceOnUse" gradientTransform="translate(-14.1489 24.8399) rotate(6.59722) scale(166.821 58.2154)">
<stop stop-color="#CFCFCF"/>
<stop offset="0.48" stop-color="white"/>
<stop offset="1" stop-color="#CFCFCF"/>
</radialGradient>
<radialGradient id="paint10_radial_10903_4418" cx="0" cy="0" r="1" gradientUnits="userSpaceOnUse" gradientTransform="translate(-14.1505 24.8399) rotate(6.59722) scale(166.821 58.2153)">
<stop stop-color="#CFCFCF"/>
<stop offset="0.48" stop-color="white"/>
<stop offset="1" stop-color="#CFCFCF"/>
</radialGradient>
<radialGradient id="paint11_radial_10903_4418" cx="0" cy="0" r="1" gradientUnits="userSpaceOnUse" gradientTransform="translate(-14.15 24.8399) rotate(6.59722) scale(166.821 58.2153)">
<stop stop-color="#CFCFCF"/>
<stop offset="0.48" stop-color="white"/>
<stop offset="1" stop-color="#CFCFCF"/>
</radialGradient>
<radialGradient id="paint12_radial_10903_4418" cx="0" cy="0" r="1" gradientUnits="userSpaceOnUse" gradientTransform="translate(-14.1484 24.8399) rotate(6.59722) scale(166.821 58.2153)">
<stop stop-color="#CFCFCF"/>
<stop offset="0.48" stop-color="white"/>
<stop offset="1" stop-color="#CFCFCF"/>
</radialGradient>
<radialGradient id="paint13_radial_10903_4418" cx="0" cy="0" r="1" gradientUnits="userSpaceOnUse" gradientTransform="translate(-14.1502 24.8399) rotate(6.59722) scale(166.821 58.2153)">
<stop stop-color="#CFCFCF"/>
<stop offset="0.48" stop-color="white"/>
<stop offset="1" stop-color="#CFCFCF"/>
</radialGradient>
<radialGradient id="paint14_radial_10903_4418" cx="0" cy="0" r="1" gradientUnits="userSpaceOnUse" gradientTransform="translate(-14.1502 24.8399) rotate(6.59722) scale(166.821 58.2153)">
<stop stop-color="#CFCFCF"/>
<stop offset="0.48" stop-color="white"/>
<stop offset="1" stop-color="#CFCFCF"/>
</radialGradient>
<radialGradient id="paint15_radial_10903_4418" cx="0" cy="0" r="1" gradientUnits="userSpaceOnUse" gradientTransform="translate(-14.1501 24.8399) rotate(6.59722) scale(166.821 58.2153)">
<stop stop-color="#CFCFCF"/>
<stop offset="0.48" stop-color="white"/>
<stop offset="1" stop-color="#CFCFCF"/>
</radialGradient>
<radialGradient id="paint16_radial_10903_4418" cx="0" cy="0" r="1" gradientUnits="userSpaceOnUse" gradientTransform="translate(-14.1492 24.8399) rotate(6.59722) scale(166.821 58.2153)">
<stop stop-color="#CFCFCF"/>
<stop offset="0.48" stop-color="white"/>
<stop offset="1" stop-color="#CFCFCF"/>
</radialGradient>
<radialGradient id="paint17_radial_10903_4418" cx="0" cy="0" r="1" gradientUnits="userSpaceOnUse" gradientTransform="translate(-14.1486 24.8399) rotate(6.59722) scale(166.821 58.2153)">
<stop stop-color="#CFCFCF"/>
<stop offset="0.48" stop-color="white"/>
<stop offset="1" stop-color="#CFCFCF"/>
</radialGradient>
<radialGradient id="paint18_radial_10903_4418" cx="0" cy="0" r="1" gradientUnits="userSpaceOnUse" gradientTransform="translate(-14.1498 24.8399) rotate(6.59722) scale(166.821 58.2153)">
<stop stop-color="#CFCFCF"/>
<stop offset="0.48" stop-color="white"/>
<stop offset="1" stop-color="#CFCFCF"/>
</radialGradient>
<radialGradient id="paint19_radial_10903_4418" cx="0" cy="0" r="1" gradientUnits="userSpaceOnUse" gradientTransform="translate(-14.1496 24.8399) rotate(6.59722) scale(166.821 58.2154)">
<stop stop-color="#CFCFCF"/>
<stop offset="0.48" stop-color="white"/>
<stop offset="1" stop-color="#CFCFCF"/>
</radialGradient>
<radialGradient id="paint20_radial_10903_4418" cx="0" cy="0" r="1" gradientUnits="userSpaceOnUse" gradientTransform="translate(-14.1506 24.8399) rotate(6.59722) scale(166.821 58.2154)">
<stop stop-color="#CFCFCF"/>
<stop offset="0.48" stop-color="white"/>
<stop offset="1" stop-color="#CFCFCF"/>
</radialGradient>
<radialGradient id="paint21_radial_10903_4418" cx="0" cy="0" r="1" gradientUnits="userSpaceOnUse" gradientTransform="translate(-14.15 24.8399) rotate(6.59722) scale(166.821 58.2153)">
<stop stop-color="#CFCFCF"/>
<stop offset="0.48" stop-color="white"/>
<stop offset="1" stop-color="#CFCFCF"/>
</radialGradient>
</defs>
</svg>
